<svg width="60" height="60" viewBox="0 0 60 60" fill="none" xmlns="http://www.w3.org/2000/svg">
<circle cx="30" cy="30" r="23.5" stroke="#2D2A43" stroke-width="2" stroke-linecap="round"/>
<path d="M20.6851 41.7441C21.7044 40.8614 23.111 40.1744 24.7227 39.7091C26.3422 39.2416 28.1609 39 30 39C31.8391 39 33.6578 39.2416 35.2774 39.7091C36.889 40.1744 38.2956 40.8614 39.3149 41.7441" stroke="#2D2A43" stroke-width="2" stroke-linecap="round"/>
<mask id="path-3-outside-1_23_245" maskUnits="userSpaceOnUse" x="19" y="22" width="7" height="4" fill="black">
<rect fill="white" x="19" y="22" width="7" height="4"/>
<path d="M24.5 22.5C24.7424 22.5 24.8636 22.5 24.9386 22.5918C25.0137 22.6835 24.9925 22.7879 24.9502 22.9967C24.8533 23.4747 24.6178 23.9178 24.2678 24.2678C23.7989 24.7366 23.163 25 22.5 25C21.837 25 21.2011 24.7366 20.7322 24.2678C20.3822 23.9178 20.1467 23.4747 20.0498 22.9967C20.0075 22.7879 19.9863 22.6835 20.0614 22.5918C20.1364 22.5 20.2576 22.5 20.5 22.5L22.5 22.5H24.5Z"/>
</mask>
<path d="M24.5 22.5C24.7424 22.5 24.8636 22.5 24.9386 22.5918C25.0137 22.6835 24.9925 22.7879 24.9502 22.9967C24.8533 23.4747 24.6178 23.9178 24.2678 24.2678C23.7989 24.7366 23.163 25 22.5 25C21.837 25 21.2011 24.7366 20.7322 24.2678C20.3822 23.9178 20.1467 23.4747 20.0498 22.9967C20.0075 22.7879 19.9863 22.6835 20.0614 22.5918C20.1364 22.5 20.2576 22.5 20.5 22.5L22.5 22.5H24.5Z" fill="#2D2A43"/>
<path d="M24.5 22.5C24.7424 22.5 24.8636 22.5 24.9386 22.5918C25.0137 22.6835 24.9925 22.7879 24.9502 22.9967C24.8533 23.4747 24.6178 23.9178 24.2678 24.2678C23.7989 24.7366 23.163 25 22.5 25C21.837 25 21.2011 24.7366 20.7322 24.2678C20.3822 23.9178 20.1467 23.4747 20.0498 22.9967C20.0075 22.7879 19.9863 22.6835 20.0614 22.5918C20.1364 22.5 20.2576 22.5 20.5 22.5L22.5 22.5H24.5Z" stroke="#2D2A43" stroke-linecap="round" mask="url(#path-3-outside-1_23_245)"/>
<mask id="path-4-outside-2_23_245" maskUnits="userSpaceOnUse" x="34" y="22" width="7" height="4" fill="black">
<rect fill="white" x="34" y="22" width="7" height="4"/>
<path d="M39.5 22.5C39.7424 22.5 39.8636 22.5 39.9386 22.5918C40.0137 22.6835 39.9925 22.7879 39.9502 22.9967C39.8533 23.4747 39.6178 23.9178 39.2678 24.2678C38.7989 24.7366 38.163 25 37.5 25C36.837 25 36.2011 24.7366 35.7322 24.2678C35.3822 23.9178 35.1467 23.4747 35.0498 22.9967C35.0075 22.7879 34.9863 22.6835 35.0614 22.5918C35.1364 22.5 35.2576 22.5 35.5 22.5L37.5 22.5H39.5Z"/>
</mask>
<path d="M39.5 22.5C39.7424 22.5 39.8636 22.5 39.9386 22.5918C40.0137 22.6835 39.9925 22.7879 39.9502 22.9967C39.8533 23.4747 39.6178 23.9178 39.2678 24.2678C38.7989 24.7366 38.163 25 37.5 25C36.837 25 36.2011 24.7366 35.7322 24.2678C35.3822 23.9178 35.1467 23.4747 35.0498 22.9967C35.0075 22.7879 34.9863 22.6835 35.0614 22.5918C35.1364 22.5 35.2576 22.5 35.5 22.5L37.5 22.5H39.5Z" fill="#2D2A43"/>
<path d="M39.5 22.5C39.7424 22.5 39.8636 22.5 39.9386 22.5918C40.0137 22.6835 39.9925 22.7879 39.9502 22.9967C39.8533 23.4747 39.6178 23.9178 39.2678 24.2678C38.7989 24.7366 38.163 25 37.5 25C36.837 25 36.2011 24.7366 35.7322 24.2678C35.3822 23.9178 35.1467 23.4747 35.0498 22.9967C35.0075 22.7879 34.9863 22.6835 35.0614 22.5918C35.1364 22.5 35.2576 22.5 35.5 22.5L37.5 22.5H39.5Z" stroke="#2D2A43" stroke-linecap="round" mask="url(#path-4-outside-2_23_245)"/>
</svg>
