<svg width="80" height="80" viewBox="0 0 80 80" fill="none" xmlns="http://www.w3.org/2000/svg">
<circle cx="40" cy="40" r="31" stroke="#E6C22C" stroke-width="2" stroke-linecap="round"/>
<path d="M29.9998 36.9167C31.9789 36.9167 33.5832 35.3124 33.5832 33.3333C33.5832 31.3543 31.9789 29.75 29.9998 29.75C28.0208 29.75 26.4165 31.3543 26.4165 33.3333C26.4165 35.3124 28.0208 36.9167 29.9998 36.9167Z" fill="#E6C22C" stroke="#E6C22C" stroke-width="0.5" stroke-linecap="round"/>
<path d="M49.9998 36.9167C51.9789 36.9167 53.5832 35.3124 53.5832 33.3333C53.5832 31.3543 51.9789 29.75 49.9998 29.75C48.0208 29.75 46.4165 31.3543 46.4165 33.3333C46.4165 35.3124 48.0208 36.9167 49.9998 36.9167Z" fill="#E6C22C" stroke="#E6C22C" stroke-width="0.5" stroke-linecap="round"/>
<path fill-rule="evenodd" clip-rule="evenodd" d="M27.3899 50C27.114 50 26.9761 50 26.901 50.0936C26.826 50.1872 26.855 50.3174 26.913 50.5778C28.1088 55.9472 33.5134 60 39.9998 60C46.4862 60 51.8908 55.9472 53.0866 50.5778C53.1446 50.3174 53.1736 50.1872 53.0985 50.0936C53.0235 50 52.8856 50 52.6097 50H27.3899Z" fill="#E6C22C"/>
</svg>
