<svg width="80" height="80" viewBox="0 0 80 80" fill="none" xmlns="http://www.w3.org/2000/svg">
<circle cx="40" cy="40" r="31" stroke="#E6C22C" stroke-width="2" stroke-linecap="round"/>
<path d="M27.7982 55.9106C29.11 54.7745 30.9374 53.8771 33.0558 53.2656C35.1821 52.6518 37.5757 52.3332 39.9998 52.3332C42.424 52.3332 44.8175 52.6518 46.9439 53.2656C49.0623 53.8771 50.8897 54.7745 52.2015 55.9106" stroke="#E6C22C" stroke-width="2" stroke-linecap="round"/>
<mask id="path-3-outside-1_17_28" maskUnits="userSpaceOnUse" x="25.6665" y="28.6665" width="9" height="6" fill="black">
<rect fill="white" x="25.6665" y="28.6665" width="9" height="6"/>
<path d="M32.8332 29.9998C33.0745 29.9998 33.1951 29.9998 33.2699 30.0868C33.3447 30.1738 33.3284 30.2818 33.2957 30.498C33.19 31.1977 32.8633 31.8504 32.3569 32.3569C31.7317 32.982 30.8839 33.3332 29.9998 33.3332C29.1158 33.3332 28.2679 32.982 27.6428 32.3569C27.1363 31.8504 26.8097 31.1977 26.7039 30.498C26.6713 30.2818 26.6549 30.1738 26.7297 30.0868C26.8045 29.9998 26.9252 29.9998 27.1665 29.9998L29.9998 29.9998H32.8332Z"/>
</mask>
<path d="M32.8332 29.9998C33.0745 29.9998 33.1951 29.9998 33.2699 30.0868C33.3447 30.1738 33.3284 30.2818 33.2957 30.498C33.19 31.1977 32.8633 31.8504 32.3569 32.3569C31.7317 32.982 30.8839 33.3332 29.9998 33.3332C29.1158 33.3332 28.2679 32.982 27.6428 32.3569C27.1363 31.8504 26.8097 31.1977 26.7039 30.498C26.6713 30.2818 26.6549 30.1738 26.7297 30.0868C26.8045 29.9998 26.9252 29.9998 27.1665 29.9998L29.9998 29.9998H32.8332Z" fill="#E6C22C"/>
<path d="M32.8332 29.9998C33.0745 29.9998 33.1951 29.9998 33.2699 30.0868C33.3447 30.1738 33.3284 30.2818 33.2957 30.498C33.19 31.1977 32.8633 31.8504 32.3569 32.3569C31.7317 32.982 30.8839 33.3332 29.9998 33.3332C29.1158 33.3332 28.2679 32.982 27.6428 32.3569C27.1363 31.8504 26.8097 31.1977 26.7039 30.498C26.6713 30.2818 26.6549 30.1738 26.7297 30.0868C26.8045 29.9998 26.9252 29.9998 27.1665 29.9998L29.9998 29.9998H32.8332Z" stroke="#E6C22C" stroke-linecap="round" mask="url(#path-3-outside-1_17_28)"/>
<mask id="path-4-outside-2_17_28" maskUnits="userSpaceOnUse" x="45.6665" y="28.6665" width="9" height="6" fill="black">
<rect fill="white" x="45.6665" y="28.6665" width="9" height="6"/>
<path d="M52.8332 29.9998C53.0745 29.9998 53.1951 29.9998 53.2699 30.0868C53.3448 30.1738 53.3284 30.2818 53.2958 30.498C53.19 31.1977 52.8633 31.8504 52.3569 32.3569C51.7317 32.982 50.8839 33.3332 49.9998 33.3332C49.1158 33.3332 48.2679 32.982 47.6428 32.3569C47.1363 31.8504 46.8097 31.1977 46.7039 30.498C46.6713 30.2818 46.6549 30.1738 46.7297 30.0868C46.8045 29.9998 46.9252 29.9998 47.1665 29.9998L49.9998 29.9998H52.8332Z"/>
</mask>
<path d="M52.8332 29.9998C53.0745 29.9998 53.1951 29.9998 53.2699 30.0868C53.3448 30.1738 53.3284 30.2818 53.2958 30.498C53.19 31.1977 52.8633 31.8504 52.3569 32.3569C51.7317 32.982 50.8839 33.3332 49.9998 33.3332C49.1158 33.3332 48.2679 32.982 47.6428 32.3569C47.1363 31.8504 46.8097 31.1977 46.7039 30.498C46.6713 30.2818 46.6549 30.1738 46.7297 30.0868C46.8045 29.9998 46.9252 29.9998 47.1665 29.9998L49.9998 29.9998H52.8332Z" fill="#E6C22C"/>
<path d="M52.8332 29.9998C53.0745 29.9998 53.1951 29.9998 53.2699 30.0868C53.3448 30.1738 53.3284 30.2818 53.2958 30.498C53.19 31.1977 52.8633 31.8504 52.3569 32.3569C51.7317 32.982 50.8839 33.3332 49.9998 33.3332C49.1158 33.3332 48.2679 32.982 47.6428 32.3569C47.1363 31.8504 46.8097 31.1977 46.7039 30.498C46.6713 30.2818 46.6549 30.1738 46.7297 30.0868C46.8045 29.9998 46.9252 29.9998 47.1665 29.9998L49.9998 29.9998H52.8332Z" stroke="#E6C22C" stroke-linecap="round" mask="url(#path-4-outside-2_17_28)"/>
</svg>
