<svg width="80" height="80" viewBox="0 0 80 80" fill="none" xmlns="http://www.w3.org/2000/svg">
<circle cx="40" cy="40" r="31" stroke="#E6C22C" stroke-width="2" stroke-linecap="round"/>
<path d="M27.7982 55.9106C29.11 54.7745 30.9374 53.8771 33.0558 53.2656C35.1821 52.6518 37.5757 52.3332 39.9998 52.3332C42.424 52.3332 44.8175 52.6518 46.9439 53.2656C49.0623 53.8771 50.8897 54.7745 52.2015 55.9106" stroke="#E6C22C" stroke-width="2" stroke-linecap="round"/>
<path d="M56.6665 26.6665L46.6665 33.3332" stroke="#E6C22C" stroke-width="2" stroke-linecap="round"/>
<path d="M23.3335 26.6665L33.3335 33.3332" stroke="#E6C22C" stroke-width="2" stroke-linecap="round"/>
<circle cx="26.6668" cy="33.3333" r="3.58333" fill="#E6C22C" stroke="#E6C22C" stroke-width="0.5" stroke-linecap="round"/>
<path d="M53.3333 36.9167C55.3124 36.9167 56.9167 35.3124 56.9167 33.3333C56.9167 31.3543 55.3124 29.75 53.3333 29.75C51.3543 29.75 49.75 31.3543 49.75 33.3333C49.75 35.3124 51.3543 36.9167 53.3333 36.9167Z" fill="#E6C22C" stroke="#E6C22C" stroke-width="0.5" stroke-linecap="round"/>
</svg>
