<svg width="46" height="46" viewBox="0 0 46 46" fill="none" xmlns="http://www.w3.org/2000/svg">
<path fill-rule="evenodd" clip-rule="evenodd" d="M45.5 23C45.5 35.4264 35.4264 45.5 23 45.5C10.5736 45.5 0.5 35.4264 0.5 23C0.5 10.5736 10.5736 0.5 23 0.5C35.4264 0.5 45.5 10.5736 45.5 23ZM12.2929 33.7071C11.9024 33.3166 11.9024 32.6834 12.2929 32.2929L21.5858 23L12.2929 13.7071C11.9024 13.3166 11.9024 12.6834 12.2929 12.2929C12.6834 11.9024 13.3166 11.9024 13.7071 12.2929L23 21.5858L32.2929 12.2929C32.6834 11.9024 33.3166 11.9024 33.7071 12.2929C34.0976 12.6834 34.0976 13.3166 33.7071 13.7071L24.4142 23L33.7071 32.2929C34.0976 32.6834 34.0976 33.3166 33.7071 33.7071C33.3166 34.0976 32.6834 34.0976 32.2929 33.7071L23 24.4142L13.7071 33.7071C13.3166 34.0976 12.6834 34.0976 12.2929 33.7071Z" fill="#FD9979"/>
</svg>
